<svg width="64" height="72" viewBox="0 0 64 72" fill="none" xmlns="http://www.w3.org/2000/svg">
<rect width="64" height="72" fill="#00405C"/>
<path d="M9.33333 21C8.59695 21 8 20.3284 8 19.5C8 18.6716 8.59695 18 9.33333 18H54.6667C55.403 18 56 18.6716 56 19.5C56 20.3284 55.403 21 54.6667 21H9.33333ZM9.33333 36C8.59695 36 8 35.3284 8 34.5C8 33.6716 8.59695 33 9.33333 33H54.6667C55.403 33 56 33.6716 56 34.5C56 35.3284 55.403 36 54.6667 36H9.33333ZM9.33333 51C8.59695 51 8 50.3284 8 49.5C8 48.6716 8.59695 48 9.33333 48H54.6667C55.403 48 56 48.6716 56 49.5C56 50.3284 55.403 51 54.6667 51H9.33333Z" fill="white"/>
</svg>
